
<svg xmlns="http://www.w3.org/2000/svg" version="1.1" xmlns:xlink="http://www.w3.org/1999/xlink" preserveAspectRatio="none" x="0px" y="0px" width="550px" height="400px" viewBox="0 0 550 400">
<defs>
<linearGradient id="Gradient_1" gradientUnits="userSpaceOnUse" x1="41.4375" y1="0.42499999999999716" x2="29.0625" y2="47.375" spreadMethod="pad">
<stop  offset="0%" stop-color="#BFE0BC"/>

<stop  offset="100%" stop-color="#5B57A6"/>
</linearGradient>

<g id="eel2_0_Layer4_0_FILL">
<path fill="#4B4689" stroke="none" d="
M -0.05 18
L -0.05 18.05 0 18.05
Q 0.000390625 18.0494140625 -0.05 18 Z"/>

<path fill="url(#Gradient_1)" stroke="none" d="
M 45.1 29.65
Q 45.2462890625 29.6388671875 45.4 29.6 45.448828125 29.6044921875 45.75 29.5 45.3796875 29.603125 45.1 29.65 Z"/>
</g>

<g id="eel2_0_Layer4_1_FILL">
<path fill="#B197D6" stroke="none" d="
M 62.9 26.6
L 62.8 26.5 62.75 26.6 62.9 26.6
M 71.65 26.95
L 71.6 26.95
Q 71.604296875 27.0162109375 71.55 27.1
L 71.65 27.15 71.65 27.1
Q 71.6650390625 27.0431640625 71.65 26.95 Z"/>

<path fill="#FFFFFF" stroke="none" d="
M 69.3 28
Q 69.433984375 28.042578125 69.5 28.05
L 69.4 27.8 69.3 28
M 69.25 27.95
Q 69.2876953125 27.990234375 69.3 28
L 69.2 27.75 69.05 27.9 69.1 27.9
Q 69.1734375 27.9517578125 69.25 27.95
M 69.75 28.15
Q 69.7875 28.15078125 69.8 28.15
L 69.7 27.95 69.5 28.05
Q 69.6783203125 28.128515625 69.75 28.15
M 68.45 27.55
L 68.45 27.55 68.3 27.3 68.25 27.4
Q 68.36171875 27.5037109375 68.45 27.55
M 68.5 27.4
L 68.45 27.55
Q 68.756640625 27.7640625 69.05 27.9
L 68.95 27.65 68.85 27.75 68.7 27.55 68.6 27.65 68.5 27.4 Z"/>

<path fill="#000000" stroke="none" d="
M 69.3 28
Q 69.2876953125 27.990234375 69.25 27.95 69.1734375 27.9517578125 69.1 27.9 69.416015625 28.0705078125 69.75 28.15 69.6783203125 28.128515625 69.5 28.05 69.433984375 28.042578125 69.3 28
M 70.95 28.2
L 71 28.2 71.2 27.95 71.15 27.95
Q 71.016015625 27.9806640625 70.35 27.95 70.0951171875 27.9642578125 69.8 27.9
L 69.8 27.9
Q 69.221484375 27.7720703125 68.55 27.4 67.8169921875 26.795703125 67.1 26.35 66.429296875 25.9455078125 65.8 25.7 66.0837890625 25.8470703125 67 26.5 67.475390625 26.9193359375 68.25 27.4
L 68.3 27.3 68.45 27.55 68.45 27.55 68.5 27.4 68.6 27.65 68.7 27.55 68.85 27.75 68.95 27.65 69.05 27.9 69.2 27.75 69.3 28 69.4 27.8 69.5 28.05 69.7 27.95 69.8 28.15
Q 70.377734375 28.27890625 70.95 28.2
M 71.3 26.85
L 71.25 26.85
Q 71.1599609375 26.846484375 71.1 27.05 71.0615234375 27.27734375 71.15 27.3 71.2107421875 27.326171875 71.25 27.3
L 71.25 27.25
Q 71.3048828125 27.2259765625 71.3 27.1 71.354296875 27.0162109375 71.35 26.95
L 71.3 26.9 71.3 26.85
M 69.75 27
Q 69.7935546875 27.253515625 69.95 27.25 70.1064453125 27.253515625 70.1 27 70.1064453125 26.808984375 69.95 26.8 69.7935546875 26.82265625 69.75 27 Z"/>

<path fill="url(#Gradient_1)" stroke="none" d="
M 66.2 27.9
Q 66.30859375 27.9486328125 66.4 28 67.25546875 28.4587890625 68.1 28.75 67.0775390625 28.3529296875 66.2 27.9 Z"/>

<path fill="#4B4689" stroke="none" d="
M 65.85 27.7
Q 65.9474609375 27.762109375 66 27.8 66.0849609375 27.835546875 66.15 27.85 66.1857421875 27.8875 66.2 27.9 67.0775390625 28.3529296875 68.1 28.75 66.827734375 28.0857421875 65.6 27.3
L 65.45 27.25 65.6 27.55
Q 65.72734375 27.6453125 65.85 27.7 Z"/>

<path fill="#9966CC" stroke="none" d="
M 69.5 19.15
Q 69.01796875 18.6087890625 67 17.65 66.671875 19.274609375 64.9 19.4 64.5310546875 19.4359375 64.2 19.4
L 64.1 19.6
Q 64.2521484375 19.7521484375 64.3 19.8 64.831640625 20.8111328125 64.4 22.4 63.8486328125 23.393359375 62.7 23.65 63.7171875 24.073828125 63.3 25.35 63.154296875 25.9587890625 62.95 26.3
L 62.8 26.5 62.9 26.6
Q 64.2591796875 26.6408203125 65.45 27.25
L 65.6 27.3
Q 66.827734375 28.0857421875 68.1 28.75 68.7216796875 28.95234375 69.3 29.05 70.66328125 29.3345703125 70.95 28.2 70.377734375 28.27890625 69.8 28.15 69.7875 28.15078125 69.75 28.15 69.416015625 28.0705078125 69.1 27.9
L 69.05 27.9
Q 68.756640625 27.7640625 68.45 27.55 68.36171875 27.5037109375 68.25 27.4 67.475390625 26.9193359375 67 26.5 66.0837890625 25.8470703125 65.8 25.7 66.429296875 25.9455078125 67.1 26.35 67.8169921875 26.795703125 68.55 27.4 69.221484375 27.7720703125 69.8 27.9
L 69.8 27.9
Q 70.0951171875 27.9642578125 70.35 27.95 71.016015625 27.9806640625 71.15 27.95 71.27734375 27.8896484375 71.45 27.7 71.6095703125 27.575 71.65 27.15
L 71.55 27.1
Q 71.534375 27.328515625 71.4 27.3 71.388671875 27.309765625 71.35 27.25 71.330078125 27.3267578125 71.25 27.3
L 71.25 27.3
Q 71.2107421875 27.326171875 71.15 27.3 71.0615234375 27.27734375 71.1 27.05 71.1599609375 26.846484375 71.25 26.85
L 71.3 26.85
Q 71.3365234375 26.848828125 71.35 26.85 71.4068359375 26.8650390625 71.4 26.9 71.4693359375 26.8482421875 71.5 26.85 71.580859375 26.8763671875 71.6 26.95
L 71.65 26.95
Q 71.67734375 26.493359375 71.55 25.8 71.22421875 23.99375 70.6 21.9 70.047265625 19.838671875 69.5 19.15
M 69.95 27.25
Q 69.7935546875 27.253515625 69.75 27 69.7935546875 26.82265625 69.95 26.8 70.1064453125 26.808984375 70.1 27 70.1064453125 27.253515625 69.95 27.25 Z"/>
</g>

<g id="eel2_0_Layer4_2_FILL">
<path fill="#FFC20E" stroke="none" d="
M 68.05 22.8
Q 67.15 22.65 66.85 23.95 66.55 25.15 67.35 25.5 68.25 25.55 68.65 24.35 68.85 23.05 68.05 22.8
M 67.75 23.2
Q 67.95 23.25 68.05 23.45 68.15 23.75 68.1 24.15 67.9 24.7 67.55 24.9 67.45 24.9 67.35 24.9 66.85 24.7 66.95 23.95 67.25 23.15 67.75 23.2 Z"/>

<path fill="#000000" stroke="none" d="
M 68.05 23.45
Q 67.95 23.25 67.75 23.2 67.25 23.15 66.95 23.95 66.85 24.7 67.35 24.9 67.45 24.9 67.55 24.9 67.9 24.7 68.1 24.15 68.15 23.75 68.05 23.45 Z"/>
</g>

<path id="eel2_0_Layer4_1_1_STROKES" stroke="#663399" stroke-width="1" stroke-linejoin="round" stroke-linecap="round" fill="none" d="
M 67.025 17.675
Q 66.671875 19.274609375 64.9 19.4 64.5310546875 19.4359375 64.2 19.4
L 64.1 19.6
Q 64.2521484375 19.7521484375 64.3 19.8 64.831640625 20.8111328125 64.4 22.4 63.8486328125 23.393359375 62.7 23.65 63.7171875 24.073828125 63.325 25.375 63.154296875 25.9587890625 62.975 26.3
L 62.8 26.525 62.75 26.6
M 71.675 26.95
Q 71.67734375 26.493359375 71.575 25.8 71.22421875 23.99375 70.625 21.925 70.047265625 19.838671875 69.525 19.175 69.01796875 18.6087890625 67.025 17.675
M 62.9 26.6
Q 64.2591796875 26.6408203125 65.45 27.275
L 65.6 27.325
Q 66.827734375 28.0857421875 68.125 28.75 68.7216796875 28.95234375 69.325 29.075 70.66328125 29.3345703125 70.975 28.225
M 71.175 27.95
Q 71.27734375 27.8896484375 71.45 27.725 71.6095703125 27.575 71.65 27.15
M 71.675 26.95
Q 71.6650390625 27.0431640625 71.65 27.125
L 71.65 27.15
M 62.75 26.6
L 62.9 26.6"/>
</defs>

<g id="anim1" transform="matrix( 1, 0, 0, 1, 239.1,176.35) ">
<g transform="matrix( 1, 0, 0, 1, 0,0) ">
<use xlink:href="#eel2_0_Layer4_0_FILL"/>
</g>

<g transform="matrix( 1, 0, 0, 1, 0,0) ">
<use xlink:href="#eel2_0_Layer4_1_FILL"/>

<use xlink:href="#eel2_0_Layer4_1_1_STROKES"/>
</g>

<g transform="matrix( 1, 0, 0, 1, 0,0) ">
<use xlink:href="#eel2_0_Layer4_2_FILL"/>
</g>
</g>
</svg>
