
<svg xmlns="http://www.w3.org/2000/svg" version="1.1" xmlns:xlink="http://www.w3.org/1999/xlink" preserveAspectRatio="none" x="0px" y="0px" width="550px" height="400px" viewBox="0 0 550 400">
<defs>
<g id="octopus_still_0_Layer0_0_FILL">
<path fill="#566755" stroke="none" d="
M -30.05 -28.45
Q -29.975 -28.4349609375 -29.9 -28.45
L -29.9 -28.75
Q -30.33125 -28.4724609375 -30.05 -28.45 Z"/>

<path fill="#336666" stroke="none" d="
M -12.4 -11.35
Q -13.07421875 -10.7359375 -13.6 -10.1 -15.0994140625 -8.2701171875 -15.35 -6.05 -15.4861328125 -4.64375 -15.8 -3.3 -15.7583984375 -3.2673828125 -15.75 -2.9 -15.74296875 -2.1001953125 -15.45 0.25 -15.1009765625 2.6513671875 -11.3 9.4 -7.55 16.1 -5.5 20.5 -4.75390625 22.4552734375 -4.5 23.8 -4.204296875 25.09765625 -4.35 25.85 -4.560546875 26.7822265625 -4.7 27.1 -2.741796875 24.28203125 -3.85 21.15 -4.55 19.45 -7.6 13.55 -10.65 7.65 -13.5 1.65 -15.7 -4.1 -14.15 -7.75 -13.1216796875 -10.1716796875 -12.6 -11.05 -12.48984375 -11.21328125 -12.4 -11.35
M -8.75 -32.25
Q -8.490234375 -32.2517578125 -10.15 -30.5 -11.765234375 -28.7427734375 -16.4 -25.7 -17.8 -24.85 -19.25 -24 -20.95 -22.9 -22.95 -22.15 -24.45 -21.45 -25.9 -20.7 -27.55 -19.8 -29.35 -19.7 -31 -19.6 -31.9 -20.95 -33.2 -22.4 -33.3 -24.3 -33.25 -26.1 -32.1 -27.5 -31.575 -28.1890625 -29.9 -28.85 -30.0833984375 -28.916796875 -30.25 -28.95 -30.5 -29 -30.8 -28.95 -31.35 -29 -31.85 -28.95 -32.35 -28.8 -32.8 -28.45 -33.6 -27.85 -34.3 -27.05 -36.55 -23.85 -34.85 -20.15 -33.7 -18 -31.3 -17.05 -30 -16.65 -28.6 -16.75 -26.75 -16.9 -25 -17.95 -23.5 -18.85 -22.2 -19.75 -18.95 -22 -15.9 -24.5 -13.255859375 -26.160546875 -12.05 -27.3 -10.794140625 -28.439453125 -9.9 -29.1 -8.7 -30.3 -8.55 -32.35 -8.631640625 -32.30546875 -8.75 -32.25
M -28.5 -50.9
L -28.65 -51.25
Q -27.15 -42.6 -18.4 -43.8 -16.85 -43.85 -15.3 -43.35 -11.95 -42 -10.75 -38.4 -11.85 -46.1 -20.45 -45.2 -26.3 -45.35 -28.5 -50.9
M 8.8 13.9
Q 9.4107421875 15.6060546875 9.85 17.4 10.4732421875 18.954296875 11.35 20.35 13.5017578125 23.89140625 14 24.4 14.028125 24.3361328125 14.15 24.15 15.552734375 26.4578125 16.65 27.95 17.9 29.65 19.5 34.65 20.85 40.1 19.9 43.25 19.0212890625 46.062109375 18.7 46.45
L 20.3 45.15
Q 22.8 36.8 19.9 30.95 17.2599609375 25.714453125 15.65 22.8 16.973828125 21.7615234375 18 20.1 19.05 18.35 19.1 18.2 16 20.6 13.6 18.8 11.2 17 9.85 14.3 8.5 11.6 8.45 11.35 8.565625 12.6603515625 8.8 13.9
M 3.55 -35.1
Q 3.5 -32.85 2.2 -30.75 0.1 -29.5 -2.4 -29.6 -0.35 -27 -3.35 -25.5 1.25 -22.75 0.65 -17.55 2.5 -16.55 4.6 -16.25 6.75 -15.95 8.55 -14.85 7.15 -11.85 5.75 -8.85 9.2 -6.35 11.3 -2.9 12.05 -1.1 13.55 2.2 15.05 5.55 15.2 5.9 16.4 7.85 17.75 9.75 18.75 11.2 19.25 12.85 19.45 14.35 19.7 15.9 19.85 16.4 20.05 16.8 20.15 17.1 20.15 17.45 20.2419921875 17.4638671875 20.3 17.45 22.2439453125 17.7537109375 24.5 17.8 26.801953125 17.8337890625 29.45 17 34.15 15.45 36.75 11.25 38.47421875 7.8474609375 38.35 5.6 38.234765625 3.3935546875 37.95 2.15 37.65625 0.9572265625 37.1 -0.95 36.5462890625 -2.8013671875 35.9 -4.6 35.7439453125 -5.0203125 35.6 -5.35 35.2140625 -6.3859375 35.1 -6.5 34.15 -4.9 33.8 -3.1 33.5 -2.25 33.4 -1.4 33.6 -0.75 33.7 -0.3 32.95 0.95 31.45 1.15 30.85 2.4 29.55 3.15 27.65 3.6 25.4 2.4 23.2 1.2 24.15 -1.15 21.9 -1.9 19.9 -3.45 18.4 -6.15 19.5 -9.1 17.5 -9.85 16.2 -11.35 15.35 -13.6 15.4 -16.15 14.4 -19.75 10.9 -21.3 8.3 -22.15 7.85 -24.6 8.25 -26.7 7.9 -28.2 7.1 -28.95 6.15 -29.65 4.35 -32.15 3.55 -35.1
M 6.8 -36.5
Q 7.0798828125 -36.04296875 8.8 -33.3 10.7 -30.35 12.55 -28 14.5 -26.3 16.8 -27.65 19.1 -29 19.3 -29.35 15.65 -28.35 11.4 -32.1 10.6421875 -32.703125 9.95 -33.45 7.203515625 -35.9123046875 6.8 -36.5
M 27.05 -31.55
Q 26.9791015625 -31.4984375 26.95 -31.45 27.065625 -31.52109375 27.25 -31.5 27.5947265625 -31.391015625 27.9 -31.25 28.9166015625 -30.7423828125 30.75 -29.2 32.280078125 -25.974609375 32 -24.8 32.13828125 -25.040625 32.25 -25.25
L 33.9 -27.15 35.55 -26.55
Q 35.7767578125 -28.1265625 35.05 -29.1
L 35.05 -29.2
Q 33.871875 -30.976953125 32.25 -31.75 30.6734375 -32.4478515625 29.25 -32.15 27.516015625 -31.787109375 27.05 -31.55 Z"/>

<path fill="#393322" stroke="none" d="
M -13.6 -10.1
Q -13.6484375 -10.05 -13.7 -10 -15.85 -7.45 -15.85 -3 -15.808984375 -3.31640625 -15.8 -3.3 -15.4861328125 -4.64375 -15.35 -6.05 -15.0994140625 -8.2701171875 -13.6 -10.1
M 35.65 -26.45
L 35.55 -26.55 35.6 -26 35.65 -26.45 Z"/>

<path fill="#003333" stroke="none" d="
M 26.95 -31.45
Q 26.9791015625 -31.4984375 27.05 -31.55 24.4994140625 -32.291015625 21.85 -30.9 20.1 -29.25 17.75 -29.15 14.169921875 -29.9125 11.4 -32.1 15.65 -28.35 19.3 -29.35 19.1 -29 16.8 -27.65 14.5 -26.3 12.55 -28 10.7 -30.35 8.8 -33.3 7.0798828125 -36.04296875 6.8 -36.5 5.9453125 -37.26953125 5.05 -38 2.45 -40.65 0.15 -43.6 -1.7 -45.6 -4.7 -47.5 -7.75 -49.35 -10.5 -49.95 -13.35 -50.3 -16.15 -49.55 -18.95 -48.85 -21.85 -49.5 -20.55 -49.85 -19.85 -51.25 -19.15 -52.7 -19.9 -53.75 -21.4 -55.5 -23.75 -55.75 -26.1 -55.95 -27.65 -54.2 -28.6064453125 -52.513671875 -28.5 -50.9 -26.3 -45.35 -20.45 -45.2 -11.85 -46.1 -10.75 -38.4 -9.4908203125 -35.4341796875 -8.75 -32.25 -8.631640625 -32.30546875 -8.55 -32.35 -8.7 -30.3 -9.9 -29.1 -10.794140625 -28.439453125 -12.05 -27.3 -13.255859375 -26.160546875 -15.9 -24.5 -18.95 -22 -22.2 -19.75 -23.5 -18.85 -25 -17.95 -26.75 -16.9 -28.6 -16.75 -30 -16.65 -31.3 -17.05 -33.7 -18 -34.85 -20.15 -36.55 -23.85 -34.3 -27.05 -33.6 -27.85 -32.8 -28.45 -32.35 -28.8 -31.85 -28.95 -31.35 -29 -30.8 -28.95 -30.5 -29 -30.25 -28.95 -30.0833984375 -28.916796875 -29.9 -28.85
L -29.9 -29.05
Q -31.2 -29.982421875 -33.25 -29.25 -36 -28.25 -37.15 -26.55 -38.8 -23.5 -37.65 -20.7 -36.5 -17.85 -34.55 -15.4 -33.1 -13.45 -30.55 -12.4 -28 -11.35 -25.75 -12 -22.9 -13.1 -20.15 -14.4 -16.45 -16.3 -12.75 -18 -11.5 -18.55 -9.4 -19.35 -7.35 -20.15 -6.15 -19.35 -4.7 -16.55 -5.55 -15.7 -5.7 -15.7 -8.15 -14.3 -10.1939453125 -13.1962890625 -12.6 -11.05 -13.1216796875 -10.1716796875 -14.15 -7.75 -15.7 -4.1 -13.5 1.65 -10.65 7.65 -7.6 13.55 -4.55 19.45 -3.85 21.15 -2.741796875 24.28203125 -4.7 27.1 -4.560546875 26.7822265625 -4.35 25.85 -4.204296875 25.09765625 -4.5 23.8 -4.458984375 23.95703125 -4.45 24.1 -4.45 25.15 -4.95 26.85 -5.4 28.55 -6.65 27.85 -7.9 26 -7.75 23.6 -9.35 25.5 -9.75 27.8 -9.45 30.3 -7.7 31.5 -5.9 32.7 -3.7 31.1 -0.7517578125 28.74921875 -0.55 24.95 -0.05 23.75 -1 20.1 -1.95 16.45 -3.75 12.6 -5.3 8.45 -5.8 4.1 -6.95 0.05 -4.6 -3.5 -2.7 -5.1 -0.2 -5.1 2.5736328125 -4.8 4.7 -1.95 6.8263671875 0.9 9 4.7 7.75 3.95 7 2.7 4.85 0.4 1.65 -0.05 -1.6 -0.45 -3.9 1.85 -5.85 4.25 -5.45 5.7 -5.2982421875 6.23125 -5.2 6.55 -3.378515625 3.3783203125 -0.5 3.6 2.4349609375 3.8794921875 4.15 5.45 5.90703125 7.0693359375 6.25 8.15 7.7720703125 10.9013671875 8.8 13.9 8.565625 12.6603515625 8.45 11.35 8.5 11.6 9.85 14.3 11.2 17 13.6 18.8 16 20.6 19.1 18.2 19.05 18.35 18 20.1 16.973828125 21.7615234375 15.65 22.8 17.2599609375 25.714453125 19.9 30.95 22.8 36.8 20.3 45.15
L 18.7 46.45
Q 19.0212890625 46.062109375 19.9 43.25 20.85 40.1 19.5 34.65 17.9 29.65 16.65 27.95 15.552734375 26.4578125 14.15 24.15 14.028125 24.3361328125 14 24.4 13.5017578125 23.89140625 11.35 20.35 10.4732421875 18.954296875 9.85 17.4 9.9556640625 17.825390625 10.05 18.25 11.95 22.55 14.6 26.4 17.15 30.4 18.65 34.65 20.2 38.85 19.2 43.65 18.9 46.8 17.1 49.4 15.75 50.3 14.25 51.25 11.15 49.6 10.05 46.3 9.45 48.4 10.95 51.4 12.45 54.35 14.3 54.15 18.743359375 53.9123046875 19.95 52.6 21.1521484375 51.295703125 22.35 48.9 24.75 44.6 25.2 38.1 25.6 31.55 23.65 27.05 21.12265625 22.45859375 20.3 17.45 20.2419921875 17.4638671875 20.15 17.45 20.15 17.1 20.05 16.8 19.85 16.4 19.7 15.9 19.45 14.35 19.25 12.85 18.75 11.2 17.75 9.75 16.4 7.85 15.2 5.9 15.05 5.55 13.55 2.2 12.05 -1.1 11.3 -2.9 9.2 -6.35 5.75 -8.85 7.15 -11.85 8.55 -14.85 6.75 -15.95 4.6 -16.25 2.5 -16.55 0.65 -17.55 1.25 -22.75 -3.35 -25.5 -0.35 -27 -2.4 -29.6 0.1 -29.5 2.2 -30.75 3.5 -32.85 3.55 -35.1 4.35 -32.15 6.15 -29.65 7.1 -28.95 7.9 -28.2 8.25 -26.7 7.85 -24.6 8.3 -22.15 10.9 -21.3 14.4 -19.75 15.4 -16.15 15.35 -13.6 16.2 -11.35 17.5 -9.85 19.5 -9.1 18.4 -6.15 19.9 -3.45 21.9 -1.9 24.15 -1.15 23.2 1.2 25.4 2.4 27.65 3.6 29.55 3.15 30.85 2.4 31.45 1.15 32.95 0.95 33.7 -0.3 33.6 -0.75 33.4 -1.4 33.5 -2.25 33.8 -3.1 34.15 -4.9 35.1 -6.5 35.2140625 -6.3859375 35.6 -5.35 35.4615234375 -5.824609375 35.3 -6.3 34.15 -10.6 33.15 -14.9 32.95 -15.8 32.5 -18.3 32.2423828125 -19.87734375 32.35 -20.75 34.35 -22.75 35.4 -25.25 35.5 -25.6 35.6 -26
L 35.55 -26.55 33.9 -27.15 32.25 -25.25
Q 32.13828125 -25.040625 32 -24.8 32.280078125 -25.974609375 30.75 -29.2 28.9166015625 -30.7423828125 27.9 -31.25 27.5947265625 -31.391015625 27.25 -31.5 27.065625 -31.52109375 26.95 -31.45 Z"/>
</g>

<path id="octopus_still_0_Layer0_0_1_STROKES" stroke="#002222" stroke-width="1" stroke-linejoin="round" stroke-linecap="round" fill="none" d="
M 6.825 -36.5
Q 5.9453125 -37.26953125 5.05 -38 2.45 -40.65 0.15 -43.6 -1.7 -45.6 -4.7 -47.5 -7.75 -49.35 -10.5 -49.95 -13.35 -50.3 -16.15 -49.55 -18.95 -48.85 -21.85 -49.5 -20.55 -49.85 -19.85 -51.25 -19.15 -52.7 -19.9 -53.75 -21.4 -55.5 -23.75 -55.75 -26.1 -55.95 -27.65 -54.2 -28.6064453125 -52.513671875 -28.475 -50.875
M 27.075 -31.55
Q 24.4994140625 -32.291015625 21.85 -30.9 20.1 -29.25 17.75 -29.15 14.169921875 -29.9125 11.4 -32.1
M -10.725 -38.4
Q -9.4908203125 -35.4341796875 -8.725 -32.25
M -29.9 -29.025
Q -31.2 -29.982421875 -33.25 -29.25 -36 -28.25 -37.15 -26.55 -38.8 -23.5 -37.65 -20.7 -36.5 -17.85 -34.55 -15.4 -33.1 -13.45 -30.55 -12.4 -28 -11.35 -25.75 -12 -22.9 -13.1 -20.15 -14.4 -16.45 -16.3 -12.75 -18 -11.5 -18.55 -9.4 -19.35 -7.35 -20.15 -6.15 -19.35 -4.7 -16.55 -5.55 -15.7 -5.7 -15.7 -8.15 -14.3 -10.1939453125 -13.1962890625 -12.6 -11.025
M -4.475 23.825
Q -4.458984375 23.95703125 -4.45 24.1 -4.45 25.15 -4.95 26.85 -5.4 28.55 -6.65 27.85 -7.9 26 -7.75 23.6 -9.35 25.5 -9.75 27.8 -9.45 30.3 -7.7 31.5 -5.9 32.7 -3.7 31.1 -0.7517578125 28.74921875 -0.55 24.95 -0.05 23.75 -1 20.1 -1.95 16.45 -3.75 12.6 -5.3 8.45 -5.8 4.1 -6.95 0.05 -4.6 -3.5 -2.7 -5.1 -0.2 -5.1 2.5736328125 -4.8 4.7 -1.95 6.8263671875 0.9 9 4.7 7.75 3.95 7 2.7 4.85 0.4 1.65 -0.05 -1.6 -0.45 -3.9 1.85 -5.85 4.25 -5.45 5.7 -5.2982421875 6.23125 -5.175 6.575 -3.378515625 3.3783203125 -0.475 3.625 2.4349609375 3.8794921875 4.175 5.475 5.90703125 7.0693359375 6.25 8.15 7.7720703125 10.9013671875 8.825 13.9
M 9.85 17.4
Q 9.9556640625 17.825390625 10.05 18.25 11.95 22.55 14.6 26.4 17.15 30.4 18.65 34.65 20.2 38.85 19.2 43.65 18.9 46.8 17.1 49.4 15.75 50.3 14.25 51.25 11.15 49.6 10.05 46.3 9.45 48.4 10.95 51.4 12.45 54.35 14.3 54.15 18.743359375 53.9123046875 19.95 52.6 21.1521484375 51.295703125 22.35 48.9 24.75 44.6 25.2 38.1 25.6 31.55 23.65 27.05 21.12265625 22.45859375 20.325 17.475
M 35.625 -5.35
Q 35.4615234375 -5.824609375 35.3 -6.3 34.15 -10.6 33.15 -14.9 32.95 -15.8 32.5 -18.3 32.2423828125 -19.87734375 32.375 -20.75 34.35 -22.75 35.4 -25.25 35.5 -25.6 35.625 -25.975
L 35.575 -26.525
Q 35.7767578125 -28.1265625 35.05 -29.1
M 35.05 -29.2
Q 33.871875 -30.976953125 32.25 -31.725 30.6734375 -32.4478515625 29.25 -32.15 27.516015625 -31.787109375 27.075 -31.55
M 35.65 -26.45
L 35.625 -25.975
M 11.4 -32.1
Q 10.6421875 -32.703125 9.95 -33.425 7.203515625 -35.9123046875 6.825 -36.5
M 20.325 17.475
Q 22.2439453125 17.7537109375 24.525 17.8 26.801953125 17.8337890625 29.45 17 34.15 15.45 36.75 11.25 38.47421875 7.8474609375 38.35 5.625 38.234765625 3.3935546875 37.95 2.175 37.65625 0.9572265625 37.1 -0.925 36.5462890625 -2.8013671875 35.9 -4.6 35.7439453125 -5.0203125 35.625 -5.35
M 8.825 13.9
Q 9.4107421875 15.6060546875 9.85 17.4
M -28.475 -50.875
L -28.65 -51.25
Q -27.15 -42.6 -18.4 -43.8 -16.85 -43.85 -15.3 -43.35 -11.95 -42 -10.725 -38.4
M -8.725 -32.25
Q -8.490234375 -32.2517578125 -10.125 -30.5 -11.765234375 -28.7427734375 -16.4 -25.7 -17.8 -24.85 -19.25 -24 -20.95 -22.9 -22.95 -22.15 -24.45 -21.45 -25.9 -20.7 -27.55 -19.8 -29.35 -19.7 -31 -19.6 -31.9 -20.95 -33.2 -22.4 -33.3 -24.3 -33.25 -26.1 -32.1 -27.5 -31.575 -28.1890625 -29.9 -28.85
M -13.6 -10.1
Q -13.6484375 -10.05 -13.7 -10 -15.85 -7.45 -15.85 -3 -15.808984375 -3.31640625 -15.775 -3.3
M -13.6 -10.1
Q -13.07421875 -10.7359375 -12.4 -11.325 -12.48984375 -11.21328125 -12.6 -11.025
M -15.775 -3.3
Q -15.7583984375 -3.2673828125 -15.75 -2.875 -15.74296875 -2.1001953125 -15.425 0.275 -15.1009765625 2.6513671875 -11.3 9.4 -7.55 16.1 -5.5 20.5 -4.75390625 22.4552734375 -4.475 23.825"/>
</defs>

<g id="anim2" transform="matrix( 0.3804931640625, 0, 0, 0.3804931640625, 251.3,178.05) ">
<g transform="matrix( -1, 0, 0, 1, 62.35,58.45) ">
<g transform="matrix( 1, 0, 0, 1, 0,0) ">
<use xlink:href="#octopus_still_0_Layer0_0_FILL"/>

<use xlink:href="#octopus_still_0_Layer0_0_1_STROKES"/>
</g>
</g>
</g>
</svg>
